<?xml version="1.0" encoding="UTF-8" standalone="no"?>
<!-- Created with Inkscape (http://www.inkscape.org/) -->

<svg
   xmlns:dc="http://purl.org/dc/elements/1.1/"
   xmlns:cc="http://creativecommons.org/ns#"
   xmlns:rdf="http://www.w3.org/1999/02/22-rdf-syntax-ns#"
   xmlns:svg="http://www.w3.org/2000/svg"
   xmlns="http://www.w3.org/2000/svg"
   xmlns:sodipodi="http://sodipodi.sourceforge.net/DTD/sodipodi-0.dtd"
   xmlns:inkscape="http://www.inkscape.org/namespaces/inkscape"
   width="256"
   height="256"
   viewBox="0 0 67.733334 67.733335"
   version="1.1"
   id="svg8"
   inkscape:version="0.92.1 unknown"
   sodipodi:docname="logo.svg">
  <defs
     id="defs2" />
  <sodipodi:namedview
     id="base"
     pagecolor="#ffffff"
     bordercolor="#666666"
     borderopacity="1.0"
     inkscape:pageopacity="0.0"
     inkscape:pageshadow="2"
     inkscape:zoom="1.761414"
     inkscape:cx="96.374528"
     inkscape:cy="170.89325"
     inkscape:document-units="mm"
     inkscape:current-layer="layer1"
     showgrid="false"
     showguides="true"
     inkscape:guide-bbox="true"
     inkscape:snap-global="false"
     inkscape:window-width="1851"
     inkscape:window-height="1053"
     inkscape:window-x="69"
     inkscape:window-y="27"
     inkscape:window-maximized="1"
     fit-margin-top="0"
     fit-margin-left="0"
     fit-margin-right="0"
     fit-margin-bottom="0"
     units="px" />
  <metadata
     id="metadata5">
    <rdf:RDF>
      <cc:Work
         rdf:about="">
        <dc:format>image/svg+xml</dc:format>
        <dc:type
           rdf:resource="http://purl.org/dc/dcmitype/StillImage" />
        <dc:title></dc:title>
      </cc:Work>
    </rdf:RDF>
  </metadata>
  <g
     inkscape:label="Capa 1"
     inkscape:groupmode="layer"
     id="layer1"
     transform="translate(-150.84482,-125.75095)">
    <g
       id="g4593"
       transform="matrix(1.1468763,0,0,1.1468763,-17.402574,-40.863368)">
      <g
         id="g4579">
        <path
           style="opacity:1;fill:#ebe4d5;fill-opacity:1;fill-rule:evenodd;stroke:#e8decc;stroke-width:0.5;stroke-linecap:butt;stroke-linejoin:miter;stroke-miterlimit:4;stroke-dasharray:none;stroke-opacity:1"
           d="m 186.72615,191.96706 c 16.00408,-5.46476 12.90896,-34.86763 -9.96025,-29.42275 -15.99809,3.76864 -21.60614,12.69822 -17.38373,20.0971 3.48607,6.1086 14.75678,13.62368 27.34398,9.32565 z"
           id="path4526"
           inkscape:connector-curvature="0"
           sodipodi:nodetypes="scss" />
        <path
           style="fill:#eae1d1;fill-opacity:1;fill-rule:evenodd;stroke:#e8decc;stroke-width:0.26458332px;stroke-linecap:butt;stroke-linejoin:miter;stroke-opacity:1"
           d="m 188.92089,164.16232 c 0,0 2.25707,-1.99154 1.99154,-3.74408 -0.26554,-1.75255 -3.43101,-3.37119 -6.50568,-3.55821 -3.0262,-0.18407 -6.8446,0.12126 -7.22262,2.68193 -0.23898,1.91187 1.19492,3.26611 1.19492,3.26611 0,0 2.05511,0.76734 5.07333,1.15626 3.16805,0.40823 5.46851,0.19799 5.46851,0.19799 z"
           id="path4549"
           inkscape:connector-curvature="0"
           sodipodi:nodetypes="ccsccsc" />
        <path
           style="fill:#eae1d1;fill-opacity:1;fill-rule:evenodd;stroke:#e4d8c0;stroke-width:0.26458332px;stroke-linecap:butt;stroke-linejoin:miter;stroke-opacity:1"
           d="m 176.36139,163.61532 c 0.30042,-0.56329 0.99515,-4.03691 -0.82616,-5.05083 -1.8213,-1.01392 -4.76919,-1.52089 -7.67953,-0.3192 -2.91034,1.20169 -4.96683,3.24841 -4.78797,4.5251 0.24766,1.76782 2.70827,3.83836 4.03691,3.83037 1.33045,-0.008 2.42473,0.15691 4.97574,-0.82616 1.29817,-0.50027 3.69894,-1.427 4.28101,-2.15928 z"
           id="path4559"
           inkscape:connector-curvature="0"
           sodipodi:nodetypes="ccssssc" />
        <path
           style="fill:#e9e0cf;fill-opacity:1;fill-rule:evenodd;stroke:#e9decb;stroke-width:0.26458332px;stroke-linecap:butt;stroke-linejoin:miter;stroke-opacity:1"
           d="m 165.34118,168.25162 c 0,0 -1.00904,-4.35482 -3.98307,-4.83279 -2.97402,-0.47797 -5.78872,0.87627 -7.43505,2.65538 -1.64634,1.7791 -3.452,4.2486 -2.8147,6.47911 0.63729,2.23052 5.84183,2.65538 7.22262,2.52261 1.3808,-0.13277 2.92092,-0.61073 4.24861,-2.04464 1.32769,-1.4339 2.54916,-3.45199 2.76159,-4.77967 z"
           id="path4563"
           inkscape:connector-curvature="0" />
      </g>
      <g
         id="g4573">
        <path
           sodipodi:nodetypes="cscc"
           inkscape:connector-curvature="0"
           id="path4528"
           d="m 188.48411,189.64759 c 5.07368,-3.91002 5.94385,-8.37121 3.82961,-12.32059 -1.95813,-3.65776 -7.46123,-5.58869 -15.28418,-3.06401 -24.51097,10.59704 0.19578,23.23368 11.45457,15.3846 z"
           style="opacity:1;fill:#fbfaf8;fill-opacity:1;fill-rule:evenodd;stroke:none;stroke-width:0.16914016px;stroke-linecap:butt;stroke-linejoin:miter;stroke-opacity:1" />
        <path
           style="opacity:1;fill:#faf8f6;fill-opacity:1;fill-rule:evenodd;stroke:none;stroke-width:0.26458332px;stroke-linecap:butt;stroke-linejoin:miter;stroke-opacity:1"
           d="m 188.25705,164.18887 c 1.21171,-1.43129 1.82379,-2.25647 0.0445,-3.16421 -0.9039,-0.39642 -3.09474,-0.86129 -5.02331,-0.48693 -2.12348,0.4122 -2.85302,0.73333 -2.93419,2.00481 -0.0483,0.75624 0.51779,0.95593 0.51779,0.95593 0,0 2.67795,0.49152 3.72688,0.58385 2.11167,0.18588 3.66835,0.10655 3.66835,0.10655 z"
           id="path4553"
           inkscape:connector-curvature="0"
           sodipodi:nodetypes="ccsscscc" />
        <path
           style="fill:#faf9f6;fill-opacity:1;fill-rule:evenodd;stroke:none;stroke-width:0.26458332px;stroke-linecap:butt;stroke-linejoin:miter;stroke-opacity:1"
           d="m 175.42351,164.01364 c 0,0 -0.0573,-2.05063 -2.04756,-2.14451 -1.56392,-0.0738 -3.13565,0.22532 -4.56265,0.90127 -1.42701,0.67594 -2.23439,1.55843 -2.08418,1.97151 0.15021,0.41308 0.82616,1.44578 1.50211,1.61476 0.67595,0.16899 2.53481,-0.22531 3.66139,-0.69472 1.12658,-0.46941 3.00515,-1.08503 3.53089,-1.64831 z"
           id="path4561"
           inkscape:connector-curvature="0"
           sodipodi:nodetypes="cscscsc" />
        <path
           style="fill:#f9f7f3;fill-opacity:1;fill-rule:evenodd;stroke:none;stroke-width:0.26458332px;stroke-linecap:butt;stroke-linejoin:miter;stroke-opacity:1"
           d="m 164.35869,170.19004 c 0,0 -1.53441,-1.94678 -3.23956,-1.83221 -1.8172,0.1221 -3.65115,1.28786 -4.83279,2.54916 -1.18164,1.2613 -1.72599,2.16413 -0.88955,2.88108 0.83645,0.71696 3.651,1.25484 4.76641,0.79661 2.45621,-1.00904 3.82374,-3.213 4.19549,-4.39464 z"
           id="path4565"
           inkscape:connector-curvature="0"
           sodipodi:nodetypes="csscsc" />
      </g>
      <g
         id="text4511"
         style="font-style:normal;font-weight:normal;font-size:26.54770088px;line-height:0px;font-family:sans-serif;letter-spacing:0px;word-spacing:0px;opacity:1;fill:#d0b784;fill-opacity:1;stroke:none;stroke-width:0.66369253px;stroke-linecap:butt;stroke-linejoin:miter;stroke-opacity:1"
         transform="matrix(0.41139829,-0.82071392,0.97377137,0.48812122,25.187602,162.63885)"
         aria-label="G">
        <path
           sodipodi:nodetypes="cscscsccscscscccccc"
           inkscape:connector-curvature="0"
           id="path4513"
           style="font-style:normal;font-variant:normal;font-weight:normal;font-stretch:normal;font-size:26.54770088px;font-family:'Good Times';-inkscape-font-specification:'Good Times, Normal';font-variant-ligatures:normal;font-variant-caps:normal;font-variant-numeric:normal;font-feature-settings:normal;text-align:start;writing-mode:lr-tb;text-anchor:start;opacity:1;fill:#d0b784;fill-opacity:1;stroke-width:0.66369253px"
           d="M 70.725384,141.78977 H 59.203682 c -2.637071,0 -4.822832,-1.36187 -6.557282,-3.11402 -1.716751,-1.75215 -2.575127,-3.96445 -2.575127,-6.63692 0,-2.65477 0.849526,-6.2537 2.548579,-7.88196 1.464732,-1.76986 3.883341,-2.68482 6.58383,-2.44239 l 9.671012,0.86818 0.576401,3.26261 -8.518209,-0.48581 c -1.730492,-0.0987 -2.346196,0.10618 -3.478898,1.22119 -1.115003,1.115 -1.341532,3.4857 -1.341532,5.23785 0,1.73445 0.721121,3.79651 1.836124,4.87612 1.419036,1.01065 2.198206,1.40251 3.932585,1.4157 l 4.53224,0.0345 v -4.92722 h -5.719448 v -3.8653 l 10.031427,0.4858 z" />
      </g>
    </g>
  </g>
</svg>
