<?xml version="1.0" encoding="UTF-8" standalone="no"?>
<svg xmlns="http://www.w3.org/2000/svg" height="256" width="256" version="1.1" viewBox="0 0 68 68">
 <path style="stroke:#e8decc;stroke-width:.5734;fill:#ebe4d5" d="m45.48 53.31c18.35-6.27 14.8-39.99-11.42-33.74-18.35 4.32-24.78 14.56-19.94 23.05 3.998 7.006 16.92 15.62 31.36 10.7z"/>
<g style="stroke-width:.3034px">
 <g style="fill:#eae1d1">
 <path style="stroke:#e8decc" d="m47.98 21.41s2.589-2.284 2.284-4.294c-0.3045-2.01-3.935-3.866-7.461-4.081-3.471-0.2111-7.85 0.1391-8.283 3.076-0.2741 2.193 1.37 3.746 1.37 3.746s2.357 0.88 5.818 1.326c3.633 0.4682 6.272 0.2271 6.272 0.2271z"/>
 <path style="stroke:#e4d8c0" d="m33.58 20.81c0.3446-0.646 1.141-4.63-0.9475-5.793-2.089-1.163-5.47-1.744-8.807-0.3661-3.338 1.378-5.696 3.726-5.491 5.19 0.284 2.027 3.106 4.402 4.63 4.393 1.526-0.009 2.781 0.18 5.707-0.9475 1.489-0.5738 4.242-1.637 4.91-2.476z"/>
 </g>
 <path style="stroke:#e9decb;fill:#e9e0cf" d="m20.98 26.11s-1.157-4.994-4.568-5.543c-3.411-0.5482-6.639 1.005-8.527 3.045s-3.959 4.873-3.228 7.431c0.7309 2.558 6.7 3.045 8.283 2.893 1.584-0.1523 3.35-0.7004 4.873-2.345s2.924-3.959 3.167-5.482z"/>
</g>
 <path style="fill:#fbfaf8" d="m47.48 50.71c5.819-4.484 6.817-9.601 4.392-14.13-2.246-4.195-8.557-6.41-17.53-3.514-28.11 12.15 0.2245 26.65 13.14 17.64z"/>
 <path style="fill:#faf8f6" d="m47.28 21.51c1.39-1.642 2.092-2.588 0.051-3.629-1.037-0.4546-3.549-0.9878-5.761-0.5584-2.435 0.4727-3.272 0.841-3.365 2.299-0.0554 0.8673 0.5938 1.096 0.5938 1.096s3.071 0.5637 4.274 0.6696c2.422 0.2132 4.207 0.1222 4.207 0.1222z"/>
 <path style="fill:#faf9f6" d="m32.48 21.31s-0.0657-2.352-2.348-2.459c-1.794-0.0846-3.596 0.2584-5.233 1.034-1.637 0.7752-2.563 1.787-2.39 2.261 0.1723 0.4738 0.9475 1.658 1.723 1.852 0.7752 0.1938 2.907-0.2584 4.199-0.7968s3.447-1.244 4.049-1.89z"/>
 <path style="fill:#f9f7f3" d="m19.88 28.41s-1.76-2.233-3.715-2.101c-2.084 0.14-4.187 1.477-5.543 2.924-1.355 1.447-1.98 2.482-1.02 3.304 0.9593 0.8223 4.187 1.439 5.466 0.9136 2.82-1.16 4.39-3.69 4.81-5.04z"/>
 <path style="fill:#d0b784" d="m51.98 32.51-5.436 10.84c-1.244 2.482-3.796 3.777-6.572 4.429-2.767 0.635-5.642 0.2045-8.627-1.292-2.965-1.486-6.583-4.301-7.6-6.811-1.285-2.369-1.166-5.158 0.3788-7.564l5.533-8.617 3.916 1.284-4.562 7.746c-0.9267 1.574-0.9884 2.268-0.2776 3.958 0.7191 1.674 3.26 3.214 5.217 4.195 1.937 0.971 4.58 1.447 6.312 1.001 1.798-0.7699 2.603-1.284 3.437-2.909l2.177-4.247-5.503-2.758-2.699 5.383-4.317-2.164 5.276-9.17z"/>
</svg>
