<?xml version="1.0" encoding="UTF-8" standalone="no"?>
<!-- Created with Inkscape (http://www.inkscape.org/) -->

<svg
   xmlns:dc="http://purl.org/dc/elements/1.1/"
   xmlns:cc="http://creativecommons.org/ns#"
   xmlns:rdf="http://www.w3.org/1999/02/22-rdf-syntax-ns#"
   xmlns:svg="http://www.w3.org/2000/svg"
   xmlns="http://www.w3.org/2000/svg"
   xmlns:sodipodi="http://sodipodi.sourceforge.net/DTD/sodipodi-0.dtd"
   xmlns:inkscape="http://www.inkscape.org/namespaces/inkscape"
   width="256"
   height="256"
   viewBox="0 0 67.733334 67.733333"
   version="1.1"
   id="svg6121"
   inkscape:version="0.92.1 unknown"
   sodipodi:docname="logo-idea-2.svg">
  <defs
     id="defs6115" />
  <sodipodi:namedview
     id="base"
     pagecolor="#ffffff"
     bordercolor="#666666"
     borderopacity="1.0"
     inkscape:pageopacity="0.0"
     inkscape:pageshadow="2"
     inkscape:zoom="2.4910156"
     inkscape:cx="7.0340959"
     inkscape:cy="140.04058"
     inkscape:document-units="mm"
     inkscape:current-layer="layer1"
     showgrid="false"
     fit-margin-top="0"
     fit-margin-left="0"
     fit-margin-right="0"
     fit-margin-bottom="0"
     units="px"
     inkscape:window-width="1851"
     inkscape:window-height="1053"
     inkscape:window-x="69"
     inkscape:window-y="27"
     inkscape:window-maximized="1" />
  <metadata
     id="metadata6118">
    <rdf:RDF>
      <cc:Work
         rdf:about="">
        <dc:format>image/svg+xml</dc:format>
        <dc:type
           rdf:resource="http://purl.org/dc/dcmitype/StillImage" />
        <dc:title></dc:title>
      </cc:Work>
    </rdf:RDF>
  </metadata>
  <g
     inkscape:label="Capa 1"
     inkscape:groupmode="layer"
     id="layer1"
     transform="translate(-136.8509,-205.45748)">
    <path
       style="stroke-width:0.16113555"
       d="m 168.28282,207.90202 0.10077,1.36116 0.8568,0.35243 -0.45372,4.81159 v 3.77548 1.76424 l -6.20014,1.20974 -6.90552,0.90744 v 2.11667 l 1.4118,-1.00821 3.73001,0.10129 3.27163,0.76429 3.01739,0.0119 -0.0517,0.0341 -0.76688,9.56428 c 0.0161,0.0739 0.0306,0.14713 0.045,0.20773 -0.0452,-1.34272 1.76062,-4.98258 2.87838,-5.51594 1.20058,-0.57287 3.86569,-0.22116 4.5222,0.42582 0.53616,0.53426 0.86089,2.47957 0.37259,3.49591 -0.91605,1.9842 -3.65649,3.20288 -4.4912,3.56257 -0.44341,0.21558 1.66705,0.69294 4.52014,-1.14205 -0.74847,4.85669 -3.1411,6.15679 -4.96042,6.33398 0.83981,0.072 2.31039,0.19793 3.10989,-0.21549 -0.54432,3.70323 -2.22434,3.82567 -4.71031,5.23792 0.13909,2.22296 0.41736,3.68888 0.48266,4.78886 0.046,0.47972 -0.74973,0.58955 -1.01493,-0.20154 -0.30152,-0.96068 -0.89669,-2.85873 -0.89969,-4.71341 -0.27209,-0.20198 -0.5341,-0.41195 -0.78754,-0.62735 l -0.90382,11.26856 c 0.37469,-0.0773 0.75998,-0.11402 1.13894,-0.14727 h 5.3e-4 c 0.076,-2.7e-4 0.15197,-0.002 0.2279,5.3e-4 0.81986,0.0611 1.64213,0.1885 2.41897,0.4656 0.59624,0.18606 1.10913,0.56194 1.6986,0.76429 0.30175,-0.0891 0.60362,-0.17806 0.90538,-0.26716 0.052,-0.0543 0.18114,0.008 0.13384,0.0832 -0.19071,0.0841 -0.38109,0.16856 -0.56948,0.25786 -0.0895,0.0124 -0.15896,0.13329 -0.0915,0.20619 0.43982,0.27398 0.8777,0.55099 1.31568,0.82786 0.25746,0.1572 0.56209,0.29261 0.86971,0.22531 0.67783,-0.12767 1.36913,-0.15203 2.05724,-0.15503 0.71497,-0.028 1.43311,0.0462 2.12804,0.216 0.15431,0.0347 0.32429,0.0851 0.50022,0.14522 l -0.077,-0.96067 c -0.0422,-0.006 -0.0834,-0.0166 -0.12196,-0.0398 0.0386,-0.01 0.0778,-0.0167 0.11679,-0.0248 l -0.11214,-1.40095 c -0.14652,-0.0404 -0.29488,-0.0744 -0.44493,-0.0982 -1.13768,-0.16768 -2.32029,-0.14113 -3.42357,0.20516 -0.0653,0.0333 -0.146,0.0236 -0.2036,0.0713 -0.0636,0.0487 -0.0763,0.16515 0.009,0.19895 0.8013,0.49874 1.71217,0.80727 2.6417,0.95653 0.3551,0.0697 0.71777,0.075 1.07745,0.10232 0.0684,0.0458 -0.0136,0.16474 -0.0822,0.12454 -0.57566,0.0862 -1.16502,0.0443 -1.7322,-0.0786 -0.97882,-0.1964 -1.86359,-0.67668 -2.7776,-1.05678 -0.12381,-0.0927 -0.28722,-0.0589 -0.42789,-0.0362 -0.0598,-0.0601 -0.0379,-0.1533 -0.0713,-0.2253 -0.19003,-0.18277 -0.38049,-0.36551 -0.57051,-0.54829 -1.13103,-1.06403 -2.10828,-2.26747 -3.05717,-3.64474 0.0949,-0.10973 0.22949,-0.17719 0.36845,-0.21239 0.0822,-0.003 0.16998,0.0111 0.23668,0.0625 0.26385,0.31028 0.48843,0.65352 0.72605,0.98443 0.6902,0.99878 1.52685,2.03691 2.5461,2.86701 0.17106,0.13677 0.34368,0.30978 0.57619,0.31988 0.35915,-0.004 0.71289,-0.0797 1.06453,-0.14624 0.84394,-0.17454 1.70829,-0.28201 2.57091,-0.22221 0.31943,0.0218 0.6387,0.0657 0.95394,0.1297 l -2.60035,-32.41972 -0.0103,-0.006 2.76056,0.0103 3.48661,-0.81494 3.73,-0.10077 1.41128,1.00769 v -2.11666 l -6.90553,-0.90747 -6.19962,-1.20974 v -1.76424 -3.77548 l -0.45372,-4.81159 0.85679,-0.35243 0.10077,-1.36116 z m -2.83393,48.73604 c -0.15888,-0.004 -0.63689,0.009 -1.00666,0.10749 l -0.0579,0.72399 c 0.37121,0.26768 0.7979,0.45783 1.24799,0.52606 1.02905,0.15604 2.07134,-0.009 3.10007,-0.10645 0.0832,0.0237 0.18561,-0.0598 0.15761,-0.1478 -0.0723,-0.0696 -0.16486,-0.11124 -0.24856,-0.16484 -0.96535,-0.57374 -2.0816,-0.84415 -3.19257,-0.93845 z m 5.87974,0.56586 c 0.1041,-0.0252 0.10716,0.16065 0.0109,0.15865 -0.0976,0.0196 -0.11216,-0.16765 -0.0109,-0.15865 z m -1.82521,0.81287 c -0.30903,-0.007 -0.61678,0.0463 -0.92087,0.0977 -0.7691,0.145 -1.54684,0.25843 -2.33061,0.27233 -0.6097,0.0295 -1.22466,-0.0755 -1.79007,-0.3054 -0.0404,-0.0168 -0.0816,-0.0346 -0.12247,-0.0517 l -0.12454,1.55029 c 0.99185,-0.45154 2.08116,-0.67768 3.16931,-0.69505 1.02017,-0.0129 2.01251,0.2612 2.99103,0.5178 0.2875,0.11237 0.61967,0.0635 0.8816,-0.092 0.0823,-0.009 0.12702,-0.12161 0.0744,-0.185 -0.30327,-0.21143 -0.60913,-0.41896 -0.91933,-0.62012 -0.29622,-0.17298 -0.5629,-0.41976 -0.90847,-0.48886 z m 5.11494,0.9679 c -0.56753,-0.0108 -1.13814,0.038 -1.6738,0.14469 -0.10158,0.0335 -0.25114,0.0173 -0.29714,0.13695 -0.008,0.088 0.0895,0.12653 0.15451,0.15813 0.97851,0.51938 2.01234,0.97214 3.11402,1.14463 0.40225,0.0662 0.81928,0.0822 1.22577,0.0305 l 0.14314,-0.22634 -0.0677,-0.84698 c -0.74556,-0.34527 -1.66777,-0.52383 -2.5988,-0.54157 z m -7.5613,0.14314 c -0.50737,-0.008 -1.01819,0.0209 -1.5136,0.13694 -0.42241,0.11321 -0.85024,0.2366 -1.22783,0.46354 -0.0626,0.0148 -0.10584,0.0696 -0.12299,0.13075 l -0.006,0.077 c 0.006,0.0422 0.0244,0.0816 0.0636,0.10697 0.54099,0.23969 1.12891,0.35548 1.71669,0.39998 1.24641,0.0883 2.52563,-0.0133 3.70313,-0.4532 0.10601,-0.0546 0.24361,-0.0562 0.32401,-0.15297 0.0601,-0.064 0.007,-0.15616 -0.063,-0.18396 -0.82531,-0.37078 -1.73694,-0.50225 -2.6355,-0.52245 v -5.3e-4 c -0.0794,0 -0.15873,-0.003 -0.23823,-0.002 z m 4.67465,0.25425 c -0.13681,0.0127 -0.26635,0.0976 -0.38292,0.16588 -0.10503,0.0248 -0.18721,0.16687 -0.10801,0.25787 0.75421,0.41954 1.51294,0.85477 2.14354,1.45159 0.31496,0.30336 0.60575,0.63981 0.81597,1.02526 0.45313,0.83402 0.41398,1.91061 -0.10387,2.70681 -0.41313,0.6252 -1.06862,1.05513 -1.76423,1.30845 -0.87431,0.30062 -1.82048,0.40998 -2.7373,0.2744 -0.59728,-0.0671 -1.19545,-0.26664 -1.65881,-0.65991 -0.35845,-0.25965 -0.57765,-0.65524 -0.78239,-1.03714 -0.0727,-0.36156 -0.0259,-0.74869 0.14212,-1.07798 0.13608,-0.31185 0.42855,-0.51661 0.72708,-0.65732 0.0755,-0.0221 0.14041,-0.097 0.22221,-0.0832 0.0689,0.0206 0.0697,0.10768 0.008,0.13798 -0.33801,0.21225 -0.50418,0.61899 -0.51418,1.00666 -0.025,0.47546 0.19613,0.9361 0.52762,1.26762 0.63157,0.61593 1.51499,0.93708 2.39003,0.95498 0.72772,-2.3e-4 1.47836,-0.15552 2.08721,-0.57051 0.82361,-0.56139 1.25799,-1.60684 1.14205,-2.58847 -0.0479,-0.52308 -0.30028,-1.00354 -0.62012,-1.41128 -0.56296,-0.73395 -1.33532,-1.27131 -2.13268,-1.7229 -0.25288,-0.13116 -0.52255,-0.29866 -0.82011,-0.25166 -0.44828,0.172 -0.89233,0.35649 -1.3503,0.50178 -1.25241,0.37661 -2.57754,0.49269 -3.87935,0.38912 -0.16218,-0.005 -0.4668,-0.0475 -0.7674,-0.13591 l 6.40168,10.11256 6.33708,-10.01024 c -0.32884,0.033 -0.65975,0.0432 -0.9896,0.0289 -0.92252,-0.0193 -1.8203,-0.29021 -2.66031,-0.65733 -0.52224,-0.21363 -1.01182,-0.49815 -1.53427,-0.71106 -0.0471,-0.0151 -0.0934,-0.0192 -0.13901,-0.015 z"
       id="path6098"
       inkscape:connector-curvature="0" />
  </g>
</svg>
