<?xml version="1.0" encoding="UTF-8" standalone="no"?>
<!-- Created with Inkscape (http://www.inkscape.org/) -->

<svg
   xmlns:dc="http://purl.org/dc/elements/1.1/"
   xmlns:cc="http://creativecommons.org/ns#"
   xmlns:rdf="http://www.w3.org/1999/02/22-rdf-syntax-ns#"
   xmlns:svg="http://www.w3.org/2000/svg"
   xmlns="http://www.w3.org/2000/svg"
   xmlns:sodipodi="http://sodipodi.sourceforge.net/DTD/sodipodi-0.dtd"
   xmlns:inkscape="http://www.inkscape.org/namespaces/inkscape"
   width="256"
   height="256"
   viewBox="0 0 67.733332 67.733335"
   version="1.1"
   id="svg6719"
   inkscape:version="0.92.1 unknown"
   sodipodi:docname="logo-idea-1.svg">
  <defs
     id="defs6713" />
  <sodipodi:namedview
     id="base"
     pagecolor="#ffffff"
     bordercolor="#666666"
     borderopacity="1.0"
     inkscape:pageopacity="0.0"
     inkscape:pageshadow="2"
     inkscape:zoom="2.4610631"
     inkscape:cx="155.89766"
     inkscape:cy="162.86607"
     inkscape:document-units="mm"
     inkscape:current-layer="layer1"
     showgrid="false"
     units="px"
     inkscape:window-width="1851"
     inkscape:window-height="1053"
     inkscape:window-x="69"
     inkscape:window-y="27"
     inkscape:window-maximized="1" />
  <metadata
     id="metadata6716">
    <rdf:RDF>
      <cc:Work
         rdf:about="">
        <dc:format>image/svg+xml</dc:format>
        <dc:type
           rdf:resource="http://purl.org/dc/dcmitype/StillImage" />
        <dc:title></dc:title>
      </cc:Work>
    </rdf:RDF>
  </metadata>
  <g
     inkscape:label="Capa 1"
     inkscape:groupmode="layer"
     id="layer1"
     transform="translate(0,-229.26664)">
    <g
       id="g7302"
       transform="translate(-21.3651,41.121024)">
      <path
         id="path6064"
         transform="scale(0.26458333)"
         d="m 199.54688,716.33984 0.38085,5.14454 3.23829,1.33398 -1.01758,10.78906 c 0.68129,0.1138 1.35652,0.27159 2.00781,0.50391 0.89204,0.27836 1.6591,0.83984 2.54102,1.14258 0.45146,-0.13335 0.90205,-0.26502 1.35351,-0.39844 0.0779,-0.0816 0.27185,0.0104 0.20117,0.12305 -0.28535,0.12578 -0.56961,0.2533 -0.85156,0.38671 -0.13412,0.0185 -0.23958,0.19937 -0.13867,0.3086 0.65801,0.40989 1.31349,0.82401 1.96875,1.23828 0.38521,0.23509 0.8425,0.43647 1.30273,0.33594 1.01413,-0.19087 2.04858,-0.22669 3.07813,-0.23047 0.6932,-0.0272 1.38583,0.0165 2.07226,0.11523 l -0.0762,-0.81054 c -0.53233,-0.005 -1.06413,-0.0652 -1.58398,-0.17774 -1.46446,-0.29386 -2.78878,-1.01141 -4.15625,-1.58008 -0.18524,-0.13871 -0.43011,-0.0887 -0.64063,-0.0547 -0.0922,-0.09 -0.0575,-0.23019 -0.10742,-0.33789 -0.2843,-0.27345 -0.56734,-0.54668 -0.85156,-0.82032 -1.69217,-1.5919 -3.15455,-3.39256 -4.57422,-5.45312 0.14163,-0.16395 0.34158,-0.26375 0.54883,-0.31641 h 0.002 c 0.12229,-0.004 0.25425,0.0151 0.35352,0.0918 0.39477,0.46424 0.73028,0.97757 1.08593,1.47265 1.03265,1.49432 2.28367,3.04911 3.8086,4.29102 0.25591,0.20459 0.51323,0.4634 0.86133,0.47852 0.53729,-0.005 1.0676,-0.11935 1.59375,-0.21875 1.11082,-0.22978 2.24521,-0.37148 3.38085,-0.34375 l -0.99218,-10.53516 3.23828,-1.33398 0.38086,-5.14454 z m 14.45703,17.30469 c -0.86158,0.0434 -1.71767,0.18431 -2.54297,0.44336 -0.0979,0.0499 -0.21656,0.034 -0.30274,0.10547 -0.0933,0.0729 -0.11407,0.24623 0.0137,0.29687 1.19885,0.7462 2.56244,1.20827 3.95312,1.43165 0.14933,0.0292 0.30044,0.0397 0.45117,0.0566 l -0.21875,-2.32422 c -0.4506,-0.0265 -0.90309,-0.0325 -1.35351,-0.01 z m -11.90039,0.44141 -0.16602,1.7539 c 0.98478,-0.0251 1.97043,-0.14745 2.94922,-0.24023 0.12435,0.0355 0.27828,-0.0892 0.23633,-0.2207 -0.1081,-0.10394 -0.24599,-0.16597 -0.3711,-0.2461 -0.82287,-0.48905 -1.72224,-0.8173 -2.64843,-1.04687 z m 6.66796,0.49023 c 0.15421,-0.0378 0.15963,0.23894 0.0156,0.23633 -0.14476,0.0295 -0.16718,-0.25145 -0.0156,-0.23633 z m -2.73046,1.21485 c -0.46232,-0.011 -0.92202,0.0694 -1.37696,0.14648 -0.91461,0.17235 -1.84054,0.29128 -2.76953,0.35352 l -0.082,0.87109 c 0.35215,-0.0349 0.70527,-0.065 1.05859,-0.0703 1.52633,-0.0194 3.01065,0.38955 4.47461,0.77343 0.43015,0.16782 0.9265,0.0961 1.31836,-0.13671 0.12246,-0.0132 0.18994,-0.18248 0.11133,-0.27735 -0.45373,-0.31634 -0.91091,-0.62688 -1.375,-0.92773 -0.44315,-0.25879 -0.84234,-0.62887 -1.35937,-0.73242 z m 7.65429,1.44921 c -0.8491,-0.0162 -1.70443,0.0572 -2.50586,0.2168 -0.1519,0.0499 -0.37457,0.0263 -0.44336,0.20508 -0.0117,0.13153 0.13296,0.18908 0.23047,0.23633 1.464,0.77707 3.01191,1.45475 4.66016,1.71289 0.0932,0.0154 0.18902,0.0175 0.2832,0.0293 l -0.20508,-2.17578 c -0.65167,-0.13145 -1.33123,-0.21149 -2.01953,-0.22461 z m -11.31445,0.21289 c -0.19856,-0.003 -0.39695,0.0118 -0.5957,0.0176 l -0.1875,1.97657 c 1.59199,0.035 3.19752,-0.14425 4.69336,-0.70313 0.15858,-0.0816 0.36418,-0.0853 0.48437,-0.23047 0.09,-0.0956 0.0106,-0.23186 -0.0937,-0.27344 -1.23477,-0.55475 -2.59906,-0.75296 -3.94336,-0.7832 -0.11905,-10e-4 -0.23837,-0.005 -0.35742,-0.004 z m 6.99414,0.38086 c -0.2047,0.019 -0.39793,0.146 -0.57227,0.24805 -0.1576,0.0369 -0.27883,0.25066 -0.16015,0.38672 1.12845,0.62774 2.26163,1.27897 3.20508,2.17187 0.47127,0.45389 0.9082,0.95653 1.22265,1.53321 0.67801,1.24781 0.61852,2.85955 -0.15625,4.05078 -0.61814,0.93536 -1.5979,1.57802 -2.63867,1.95703 -1.30806,0.44965 -2.72404,0.61312 -4.0957,0.41016 -0.89363,-0.10035 -1.78918,-0.39793 -2.48242,-0.98633 -0.53628,-0.3885 -0.86378,-0.98135 -1.16993,-1.55274 -0.10885,-0.54092 -0.0384,-1.11866 0.21289,-1.61132 0.20357,-0.46659 0.64128,-0.77386 1.08789,-0.98438 0.11301,-0.0333 0.20958,-0.1439 0.33204,-0.125 0.10242,0.031 0.10355,0.16168 0.0117,0.20703 -0.50571,0.31756 -0.75442,0.92589 -0.76954,1.50586 -0.0374,0.71138 0.29312,1.4005 0.78907,1.89649 0.94492,0.92148 2.26698,1.40323 3.57617,1.42968 1.08877,-3.7e-4 2.21211,-0.2346 3.12304,-0.85547 1.23221,-0.83987 1.88247,-2.40244 1.70899,-3.87109 -0.0716,-0.78259 -0.4512,-1.50131 -0.92969,-2.11133 -0.8423,-1.0981 -1.99652,-1.90249 -3.18945,-2.57812 -0.37837,-0.19654 -0.78333,-0.44724 -1.22852,-0.37696 -0.67067,0.25732 -1.33438,0.53269 -2.01953,0.75 -1.19483,0.35937 -2.43378,0.54333 -3.67969,0.60157 l -0.10156,1.07226 v 22.26953 6.66797 l -23.43164,4.57227 -26.10156,3.42969 v 8 l 5.33789,-3.81055 14.0957,0.38281 12.36524,2.88867 11.40625,0.0449 -0.19532,0.1289 -0.22461,2.78906 a 47.314597,47.314597 0 0 1 14.04688,-2.1875 47.314597,47.314597 0 0 1 14.04492,2.13672 l -0.21875,-2.73828 -0.0371,-0.0215 10.43164,0.0391 13.17969,-3.08008 14.0957,-0.38086 5.33594,3.8086 v -8 l -26.09961,-3.42969 -23.43359,-4.57227 v -6.66797 -22.26953 l -0.10352,-1.09765 c -0.0286,-10e-4 -0.0573,0.001 -0.0859,0 -1.38025,-0.0289 -2.72371,-0.43319 -3.98047,-0.98242 -0.78131,-0.3196 -1.51324,-0.74584 -2.29493,-1.06446 -0.0704,-0.0225 -0.14075,-0.0298 -0.20898,-0.0234 z m -21.68555,137.9668 -3.75781,46.85547 24.82031,39.20703 24.81836,-39.20703 -3.75586,-46.81836 a 47.314597,47.314597 0 0 1 -21.06445,4.96875 47.314597,47.314597 0 0 1 -21.06055,-5.00586 z"
         style="stroke-width:0.6090163"
         inkscape:connector-curvature="0" />
      <circle
         style="color:#000000;clip-rule:nonzero;display:inline;overflow:visible;visibility:visible;opacity:1;isolation:auto;mix-blend-mode:normal;color-interpolation:sRGB;color-interpolation-filters:linearRGB;solid-color:#000000;solid-opacity:1;fill:none;fill-opacity:1;fill-rule:nonzero;stroke:#000000;stroke-width:0.57214272;stroke-linecap:butt;stroke-linejoin:round;stroke-miterlimit:4;stroke-dasharray:none;stroke-dashoffset:0;stroke-opacity:1;marker:none;color-rendering:auto;image-rendering:auto;shape-rendering:auto;text-rendering:auto;enable-background:accumulate"
         id="circle6066"
         cx="55.231827"
         cy="220.52832"
         r="12.518654" />
      <path
         id="path6068"
         transform="scale(0.26458333)"
         d="m 218.125,798.80273 c -4.36062,-0.047 -9.03859,0.76501 -9.56055,4.30079 -0.37712,3.01697 1.88477,5.15429 1.88477,5.15429 0,0 3.24304,1.2105 8.00586,1.82422 4.99924,0.64418 8.63086,0.3125 8.63086,0.3125 0,0 3.56159,-3.14268 3.14258,-5.9082 -0.41903,-2.7656 -5.41374,-5.32013 -10.26563,-5.61524 -0.59692,-0.0363 -1.21494,-0.0616 -1.83789,-0.0684 z m -21.38867,3.36133 c -1.64201,0.0528 -3.37154,0.38459 -5.09375,1.09571 -4.59257,1.8963 -7.83889,5.12598 -7.55664,7.14062 0.39081,2.78963 4.27447,6.05556 6.37109,6.04297 2.09948,-0.0113 3.82602,0.24853 7.85156,-1.30274 2.04854,-0.7894 5.83734,-2.25265 6.75586,-3.4082 0.47407,-0.88887 1.56938,-6.36876 -1.30468,-7.96875 -1.79628,-0.99999 -4.28677,-1.68757 -7.02344,-1.59961 z m 21.25781,11.23438 c -2.43899,0.0442 -5.06737,0.37758 -7.88672,1.04883 -25.24527,5.94701 -34.09664,20.03732 -27.43359,31.71289 5.50104,9.63949 23.28756,21.49919 43.15039,14.71679 23.28168,-7.94978 20.94989,-48.00035 -7.83008,-47.47851 z m -39.11133,0.0117 c -3.10216,-0.0446 -5.93751,1.45067 -7.6875,3.34179 -1.99999,2.16129 -4.19413,5.16144 -3.41992,7.8711 0.7742,2.70965 7.09603,3.22572 8.77344,3.06445 1.6774,-0.16139 3.54921,-0.74243 5.16211,-2.48438 1.61289,-1.7419 3.09741,-4.19376 3.35547,-5.80664 0,0 -1.22696,-5.28849 -4.83985,-5.86914 -0.45161,-0.0726 -0.90058,-0.11082 -1.34375,-0.11718 z m 25.10742,6.4082 5.38868,1.76758 -6.27539,10.65625 c -1.27511,2.16514 -1.36276,3.12146 -0.38477,5.44726 0.98945,2.30291 4.48536,4.42186 7.17773,5.77149 2.66518,1.33598 6.30273,1.98939 8.68555,1.37695 2.47423,-1.05936 3.58432,-1.76591 4.73047,-4.00195 l 2.99414,-5.8418 -7.57226,-3.79687 -3.7129,7.4082 -5.93945,-2.97656 7.25977,-12.61914 18.36523,9.20507 -7.48047,14.92188 c -1.71196,3.41529 -5.22459,5.19709 -9.04297,6.09375 -3.80691,0.87375 -7.76257,0.28313 -11.86914,-1.77539 -4.07947,-2.04488 -9.05804,-5.91646 -10.45703,-9.3711 -1.76878,-3.26022 -1.6042,-7.09752 0.52149,-10.4082 z"
         style="opacity:1;fill:#000000;fill-opacity:1;fill-rule:evenodd;stroke:none;stroke-width:0.78900969;stroke-linecap:butt;stroke-linejoin:miter;stroke-miterlimit:4;stroke-dasharray:none;stroke-opacity:1"
         inkscape:connector-curvature="0" />
    </g>
  </g>
</svg>
